Coordinates
version=1
nRows=14
nColumns=40
inDegrees=yes

Units are S.I. units (second, meters, Newtons, ...)
Angles are in degrees.

endheader
time	pelvis_tilt	pelvis_list	pelvis_rotation	pelvis_tx	pelvis_ty	pelvis_tz	hip_flexion_r	hip_adduction_r	hip_rotation_r	knee_angle_r	knee_angle_r_beta	ankle_angle_r	subtalar_angle_r	mtp_angle_r	hip_flexion_l	hip_adduction_l	hip_rotation_l	knee_angle_l	knee_angle_l_beta	ankle_angle_l	subtalar_angle_l	mtp_angle_l	lumbar_extension	lumbar_bending	lumbar_rotation	arm_flex_r	arm_add_r	arm_rot_r	elbow_flex_r	pro_sup_r	wrist_flex_r	wrist_dev_r	arm_flex_l	arm_add_l	arm_rot_l	elbow_flex_l	pro_sup_l	wrist_flex_l	wrist_dev_l
     56.88000000	     -5.17376882	     -4.77471550	      4.11252127	      1.11979835	      0.93556377	      0.49884443	     10.99666782	      3.51821079	    -15.85439748	     17.23935604	     17.23935604	     10.72462524	      3.15693683	     -3.12481955	     31.60768322	    -13.16039062	      0.53779519	     59.73684852	     59.73684852	      9.62968248	    -17.14535107	     10.04389701	    -11.79901884	      4.44065650	      1.85690607	     13.83607928	    -23.18266370	     -0.94933359	     68.44104003	     45.77892474	      0.00000000	      0.00000000	      2.03411123	    -10.72814938	    -14.13348632	     43.38210597	     45.77511190	      0.00000000	      0.00000000
     56.89257143	     -5.32922947	     -4.89492791	      4.46513579	      1.11841771	      0.93581466	      0.49913854	     10.87618645	      3.64495722	    -16.13075329	     17.21858820	     17.21858820	     10.81781905	      3.09740175	     -3.18218427	     32.54206265	    -13.11684910	      0.25966819	     57.19801802	     57.19801802	     10.03936460	    -16.89187211	     10.17133195	    -11.77826780	      4.81127669	      2.20803027	     14.49700684	    -23.41803679	     -1.03273746	     68.55427609	     45.78067627	      0.00000000	      0.00000000	      2.06148578	    -10.59356295	    -14.09467777	     43.42448224	     45.77311826	      0.00000000	      0.00000000
     56.90514286	     -5.40095943	     -4.66203008	      4.70984871	      1.11721266	      0.93668127	      0.49918004	     10.23376396	      3.42365664	    -16.69357578	     16.43327051	     16.43327051	     10.63163075	      4.06268255	     -3.38128453	     32.85222500	    -12.74557477	     -0.45325454	     53.96114148	     53.96114148	      9.68533421	    -16.73906485	      8.66872822	    -11.89704723	      4.76290918	      2.27978644	     16.20051841	    -23.56354988	     -0.53490007	     66.84677036	     45.80967114	      0.00000000	      0.00000000	      1.94238155	    -10.45491089	    -13.54999091	     43.41782183	     45.75391917	      0.00000000	      0.00000000
     56.91771429	     -5.55352090	     -4.57185526	      4.99303018	      1.11592876	      0.93694976	      0.49923103	     10.00693536	      3.36053996	    -16.80184056	     16.22591337	     16.22591337	     10.67278295	      3.94262818	     -3.39711952	     33.26417097	    -12.39565967	     -0.88648854	     50.75151813	     50.75151813	      9.91123761	    -16.20692726	      8.79511986	    -11.91632701	      4.90080833	      2.57449966	     17.03990226	    -23.87341274	     -0.52297942	     66.82774497	     45.81124676	      0.00000000	      0.00000000	      1.93450270	    -10.24253107	    -13.45535700	     43.54290141	     45.75040091	      0.00000000	      0.00000000
     56.93028571	     -5.57063262	     -4.53024997	      5.28362577	      1.11485177	      0.93728004	      0.49914913	      9.46542196	      3.37890429	    -17.12194156	     15.70415870	     15.70415870	     10.57238825	      4.18254219	     -3.79990894	     33.30423585	    -12.05603558	     -1.24976438	     47.18592150	     47.18592150	      9.43706006	    -15.68029538	      7.16464475	    -11.99863962	      5.08270133	      2.27837567	     19.05670393	    -23.88426631	      0.87411232	     64.62058176	     45.81591048	      0.00000000	      0.00000000	      1.34092051	    -10.33898469	    -12.90487440	     44.12702057	     45.74853425	      0.00000000	      0.00000000
     56.94285714	     -5.77211238	     -4.46714334	      5.51028084	      1.11367908	      0.93708797	      0.49894521	      9.26470796	      3.34202763	    -17.20682254	     15.43982508	     15.43982508	     10.67727709	      4.14176684	     -3.83767367	     33.51346775	    -11.62440577	     -1.50129931	     43.69467270	     43.69467270	      9.69256785	    -14.72968178	      7.47064921	    -11.93990450	      5.25089619	      2.59861015	     19.76574052	    -24.21645726	      0.89877012	     64.62576420	     45.81558773	      0.00000000	      0.00000000	      1.30988149	    -10.11711917	    -12.86186811	     44.26489060	     45.75035407	      0.00000000	      0.00000000
     56.95542857	     -5.89284163	     -4.42258071	      5.73278220	      1.11265643	      0.93682302	      0.49859180	      8.92669449	      3.33875594	    -17.34199188	     15.10521821	     15.10521821	     10.80966857	      4.17943614	     -3.90454430	     33.53001077	    -11.18549298	     -1.64869837	     40.11833402	     40.11833402	      9.92847748	    -13.51710543	      7.77001878	    -11.91386280	      5.44137709	      2.93058236	     20.47723366	    -24.53948017	      1.00360648	     64.41722915	     45.81947525	      0.00000000	      0.00000000	      1.27739945	     -9.92438697	    -12.78723682	     44.40599414	     45.74911491	      0.00000000	      0.00000000
     56.96800000	     -5.94968024	     -4.37002642	      5.92664082	      1.11177859	      0.93648415	      0.49812773	      8.46930692	      3.34223800	    -17.47177209	     14.68980384	     14.68980384	     10.96018922	      4.31430217	     -4.01602872	     33.38572918	    -10.76381385	     -1.79604318	     36.51146446	     36.51146446	     10.09993528	    -12.05061799	      8.04842755	    -11.92868567	      5.64452849	      3.26114126	     21.23006141	    -24.80956326	      1.27092202	     63.91013907	     45.82664851	      0.00000000	      0.00000000	      1.20747034	     -9.80304941	    -12.67926232	     44.55754450	     45.74625051	      0.00000000	      0.00000000
     56.98057143	     -6.01164276	     -4.43651976	      6.11805169	      1.11102475	      0.93584722	      0.49756766	      7.94634755	      3.48271348	    -17.74242651	     14.11798950	     14.11798950	     10.97595907	      4.62845201	     -4.58590974	     33.25482706	    -10.49415470	     -1.93573297	     33.00924688	     33.00924688	     10.06539394	    -10.33147128	      7.60841189	    -11.80581643	      5.95257506	      2.76792060	     23.43810561	    -24.68026439	      3.33175834	     60.99198491	     45.83252285	      0.00000000	      0.00000000	      0.49499170	     -9.93825729	    -12.29296875	     45.07471882	     45.75545503	      0.00000000	      0.00000000
     56.99314286	     -6.17349169	     -4.41031728	      6.25670267	      1.11020524	      0.93496035	      0.49689051	      7.69176505	      3.48509431	    -17.77005961	     13.88268503	     13.88268503	     11.24688611	      4.55094476	     -4.69008042	     33.17309922	    -10.06336837	     -1.95230440	     29.62536262	     29.62536262	     10.10999721	     -8.87375388	      8.08605406	    -11.69469060	      6.13711832	      3.06207073	     23.95315925	    -24.92108470	      3.44187878	     60.90234556	     45.83082163	      0.00000000	      0.00000000	      0.40566635	     -9.76822750	    -12.30995268	     45.22792053	     45.76344864	      0.00000000	      0.00000000
     57.00571429	     -6.24210239	     -4.39230045	      6.36940649	      1.10958952	      0.93413888	      0.49611960	      7.26357463	      3.51867737	    -17.79231376	     13.53623415	     13.53623415	     11.51672929	      4.60290130	     -4.79190827	     32.97136572	     -9.71113357	     -2.11298591	     26.45088574	     26.45088574	     10.05034512	     -7.27470811	      8.56275488	    -11.62824026	      6.36665366	      3.37726635	     24.45494292	    -25.11891946	      3.65537521	     60.55040997	     45.83360446	      0.00000000	      0.00000000	      0.32354557	     -9.66285897	    -12.31377334	     45.37189731	     45.77108751	      0.00000000	      0.00000000
     57.01828571	     -6.33432205	     -4.43912385	      6.44665468	      1.10905034	      0.93318296	      0.49536334	      6.86994970	      3.61725798	    -17.84357750	     13.19948837	     13.19948837	     11.79291480	      4.68580094	     -4.89702688	     32.83018016	     -9.45493383	     -2.33750906	     23.60155336	     23.60155336	      9.90059426	     -5.75624751	      9.02967925	    -11.52284638	      6.60991001	      3.62706649	     24.94088544	    -25.28102753	      3.87588609	     60.11646962	     45.83929027	      0.00000000	      0.00000000	      0.23526038	     -9.55390458	    -12.29051863	     45.47455004	     45.77471145	      0.00000000	      0.00000000
     57.03085714	     -6.26439061	     -4.53035903	      6.50893604	      1.10883793	      0.93245871	      0.49457939	      6.16143730	      3.80295868	    -17.96981587	     12.63350850	     12.63350850	     11.98700876	      5.12278607	     -5.07760977	     32.59696030	     -9.35671311	     -2.92126188	     21.24907695	     21.24907695	      9.58775750	     -4.04661812	      9.10987167	    -11.48506788	      6.89438897	      3.37054415	     26.48759070	    -24.97082984	      5.36040076	     57.54510581	     45.85606697	      0.00000000	      0.00000000	     -0.22790015	     -9.70749877	    -12.29957362	     45.70244844	     45.81135929	      0.00000000	      0.00000000
     57.04342857	     -6.28894765	     -4.51903640	      6.54078267	      1.10854016	      0.93162066	      0.49364822	      5.74947139	      3.81150710	    -17.94739094	     12.46242264	     12.46242264	     12.31235414	      5.14420380	     -5.16020258	     32.41900471	     -9.06836769	     -3.36429348	     19.21074688	     19.21074688	      9.12701807	     -3.05278236	      9.55042035	    -11.43246575	      7.03995881	      3.50794663	     26.86140830	    -24.99569054	      5.60992978	     57.18223223	     45.85428477	      0.00000000	      0.00000000	     -0.37064217	     -9.64332346	    -12.38263665	     45.84029775	     45.82976284	      0.00000000	      0.00000000
